<?xml version="1.0" encoding="utf-8"?><svg id="467ab3bc-e6e9-42d3-b878-551445cf23cb" data-name="Layer 1" xmlns="http://www.w3.org/2000/svg" viewBox="0 0 204 71"><title>its free LP</title><path d="M105.13,22a9.79,9.79,0,0,0,1.76.54l.34.07a10.26,10.26,0,0,1,1.42.46q-.74,1.84-1.22,3.21a14.76,14.76,0,0,0-.65,2.41,3.88,3.88,0,0,0,.09,1.83,3.61,3.61,0,0,0,1,1.48,9.1,9.1,0,0,0,2,1.37A31.65,31.65,0,0,0,113,34.78l.49.2.85.32.41.15.4.16.56.23a1.92,1.92,0,0,0,1.19.18,1.12,1.12,0,0,0,.54-.66l.09-.23a1.63,1.63,0,0,0,.09-.31.77.77,0,0,0,0-.33.27.27,0,0,0-.17-.2.44.44,0,0,0-.21,0h-.34l-.25,0h-.29l-.39-.13-.44-.17-1.61-.65q-1.46-.61-2.48-1.13a4.64,4.64,0,0,1-1.73-1.42,3.16,3.16,0,0,1-.52-2,9.27,9.27,0,0,1,.77-2.94l0-.09.16-.35q.13-.27.27-.52l.09-.16q.08-.15.13-.29l.09-.23.46-.2,3.53,1.43.08,0,.42.26.65.43.28.17.26.15.09,0a2,2,0,0,0,.43.12,1.59,1.59,0,0,0,.48,0,1.07,1.07,0,0,0,.46-.18.81.81,0,0,0,.3-.37.4.4,0,0,0-.05-.25q-.08-.18-.14-.21l-.07-.08-.12-.11a1.87,1.87,0,0,0-.34-.25l-.13-.08-.23-.16-.07-.06-.15-.09-.1-.05-.9-.51-1.95-1.12-1-.54-1-.52q-.28-.15-.2-.6a5.37,5.37,0,0,1,.31-1l.24-.58.27-.63A7.67,7.67,0,0,0,113,18a2.48,2.48,0,0,0,0-1.07.93.93,0,0,0-.62-.69l-.05,0-.15,0a1.59,1.59,0,0,0-.31,0,1.12,1.12,0,0,0-.29,0,.24.24,0,0,0-.18.16l-2,4.93-3-1.23s-.09,0-.2.07l-.41.2-.47.25a2.47,2.47,0,0,0-.35.24l-.07.16a1.74,1.74,0,0,0-.12.58A.47.47,0,0,0,105.13,22Z" style="fill:#f97316
"/><path d="M121.94,26.18a1.32,1.32,0,0,0,.46,0,2.07,2.07,0,0,0,.45,0,14.88,14.88,0,0,1,.68-1.8q.39-.85.84-1.64t.89-1.6a16.83,16.83,0,0,0,.81-1.73,1.15,1.15,0,0,0,0-.88,1.26,1.26,0,0,0-.76-.69,1,1,0,0,0-.87,0,3.3,3.3,0,0,0-.79.61,4.11,4.11,0,0,0-.69,1q-.3.58-.57,1.12a9.85,9.85,0,0,0-.43,1l-.06.18-.22.58q-.06.16-.12.39l-.09.35a8,8,0,0,0-.2,1.21,3.65,3.65,0,0,0,.07,1.17A1,1,0,0,0,121.94,26.18Z" style="fill:#f97316
"/><path d="M99.22,30a12.06,12.06,0,0,0,.53-1.65q.22-.88.42-1.81l.4-1.84a17,17,0,0,1,.48-1.77l0-.07.86-2.26q.31-.81.61-1.7t.51-1.64a6.44,6.44,0,0,0,.24-1.26q0-.51-.18-.6a.79.79,0,0,0-.78,0,2.16,2.16,0,0,0-.59.66,6.18,6.18,0,0,0-.48.95l-.49,1.22q-.06.16-.12.33l-.05.16-.06.16-.06.16q-.3.89-.77,1.95t-.94,2.12a22.37,22.37,0,0,0-.8,2.14,7.81,7.81,0,0,0-.38,2,3.15,3.15,0,0,0,.33,1.63A2.43,2.43,0,0,0,99.22,30Z" style="fill:#f97316
"/><path d="M123.64,28.36a1.37,1.37,0,0,0-1,.75,1,1,0,0,0,0,.6,1.86,1.86,0,0,0,.24.61l2.5,1.35,1,.54.48.28,4.2,2.4a6.6,6.6,0,0,1,1.21.87A2.68,2.68,0,0,1,133,36.9a2,2,0,0,1-.1,1.43.82.82,0,0,1-.46.48,3.06,3.06,0,0,1-.72.19l-.81.13a1.66,1.66,0,0,0-.67.26,8,8,0,0,0-.83-.13l-.4-.05-.84-.14-.43-.07-.83-.12-.32,0-.35-.05-.15,0h0l-.19-.05-.11,0-.24-.1a1,1,0,0,1-.27-.17,2.3,2.3,0,0,1-.23-.22.22.22,0,0,1-.05-.24l.33-2.69-.1,0v0a.68.68,0,0,0-.67.06,1.78,1.78,0,0,0-.53.56,5,5,0,0,0-.38.76l-.27.66a1.75,1.75,0,0,0-.12,1.09,2.11,2.11,0,0,0,.47.89,3.41,3.41,0,0,0,.84.69,7,7,0,0,0,.94.47,14.31,14.31,0,0,0,2.57.74,10.12,10.12,0,0,0,2.8.18,6.09,6.09,0,0,0,2.48-.72A3.7,3.7,0,0,0,135,38.58a2.8,2.8,0,0,0,.13-1.87,4.74,4.74,0,0,0-.92-1.69,8.84,8.84,0,0,0-1.6-1.49,17.66,17.66,0,0,0-2-1.25q-1-.56-1.95-1l-.85-.37-.69-.29.14-.35.6.1.77.15,1.47.28,1.64.31.63.13.59.18a6.59,6.59,0,0,0,.64.19,1.13,1.13,0,0,0,.61,0,.73.73,0,0,0,.43-.47.92.92,0,0,0,0-.86,1.3,1.3,0,0,0-.63-.55q-.37-.15-1-.34l-.53-.16q-1-.29-2.2-.52t-2.47-.41a15.31,15.31,0,0,0-2.33-.17A7.33,7.33,0,0,0,123.64,28.36Z" style="fill:#f97316
"/><path d="M183.29,61.64q-1.32-.39-2.63-.92l-.95-.38a11.16,11.16,0,0,1-1.24-.6q-.65-.36-1.29-.8a5,5,0,0,1-1.07-1,3.2,3.2,0,0,1-.6-1.14,2,2,0,0,1,.1-1.3s.07-.06.18-.11a.62.62,0,0,1,.28-.07h0l.15,0,.24.05.75.18.74.2a2.57,2.57,0,0,0,.45.1l.64.1,1.38.17,1.59.22.65.08.73.07.17,0,.28,0,.21,0,.77-.15a2,2,0,0,0,.55-.18,1,1,0,0,0,.39-.36,4.26,4.26,0,0,0,.33-.68,3.51,3.51,0,0,0,.26-1.83,4.17,4.17,0,0,0-.59-1.61,4.77,4.77,0,0,0-1.21-1.31,7,7,0,0,0-1.6-.9,6.24,6.24,0,0,0-2.4-.41,8.55,8.55,0,0,0-2.66.44,7.68,7.68,0,0,0-2.37,1.28,4.9,4.9,0,0,0-1.54,2,9.74,9.74,0,0,0-.58,2A7.09,7.09,0,0,0,173.4,57a5.28,5.28,0,0,0,.62,1.91,5,5,0,0,0,1.4,1.58l.82.33.55.24.27.12.51.21.56.22,1.27.51.77.3q.92.35,1.8.65t1.9.53q1,.24,2.38.46a.42.42,0,0,0,.35-.12,1.79,1.79,0,0,0,.31-.35,2.15,2.15,0,0,0,.22-.41l.11-.27A29,29,0,0,0,184,61.83Zm-6.71-9.9a3.69,3.69,0,0,1,1.05-.39,5.68,5.68,0,0,1,1.3-.12,10.76,10.76,0,0,1,1.39.11,11,11,0,0,1,1.31.27,10,10,0,0,1,1.08.36l.3.12.41.18.49.24.17.08.25.42-.06.14a1.57,1.57,0,0,1-.79.87,3.06,3.06,0,0,1-1.24.28,6,6,0,0,1-1.54-.17q-.84-.19-1.68-.47t-1.63-.6l-1.47-.59A1.45,1.45,0,0,1,176.59,51.74Z" style="fill:#f97316
"/><path d="M174.31,48.61a.6.6,0,0,0,.25-.16.11.11,0,0,1,.06-.06v0l.06-.06v-.13a.2.2,0,0,1,0-.07,1,1,0,0,0,0-.22,1.54,1.54,0,0,0-.1-.26l-.12-.25-.08-.17-.77-.52-.52-.38-.26-.2-.51-.36-.31-.21-.18-.13-.19-.08a8.35,8.35,0,0,0-2.44-.61,11.67,11.67,0,0,0-4.28.43,16,16,0,0,0-1.62.57q-.68.29-1.1.49t-.52.17a.29.29,0,0,1-.15-.14l-.09-.2a.91.91,0,0,0-.12-.21.49.49,0,0,0-.21-.17,1.21,1.21,0,0,0-.73-.1,4.65,4.65,0,0,0-.82.31.11.11,0,0,0-.06.06l-.07.17s0,.07,0,.08a.35.35,0,0,0,0,.28q.08.17.11.19l-1.61,6.78a.44.44,0,0,0,0,.19.46.46,0,0,0,.16.25.1.1,0,0,0,.05.06l.06,0a.82.82,0,0,0,.38.07,1.27,1.27,0,0,0,.31-.07l.11,0,.24,0a1.25,1.25,0,0,1,.55.12l2-4.88a3.61,3.61,0,0,1,1.13-1.44,6.51,6.51,0,0,1,1.8-1,7.75,7.75,0,0,1,2-.47,3.6,3.6,0,0,1,1.71.19l5.68,2.29Z" style="fill:#f97316
"/><path d="M200,67.88l-.66-.19q-1.32-.39-2.63-.92l-.95-.38a11.15,11.15,0,0,1-1.24-.6q-.65-.36-1.29-.8a5,5,0,0,1-1.07-1,3.2,3.2,0,0,1-.6-1.14,2,2,0,0,1,.1-1.3s.07-.06.18-.11a.62.62,0,0,1,.28-.07h0l.15,0,.24.05.75.18.74.2a2.56,2.56,0,0,0,.45.1l.64.1,1.38.17,1.59.22.65.08.73.07.17,0,.48.07.42-.08.35-.07a2,2,0,0,0,.55-.18,1,1,0,0,0,.39-.36,4.26,4.26,0,0,0,.33-.68,3.51,3.51,0,0,0,.26-1.83,4.17,4.17,0,0,0-.59-1.61,4.77,4.77,0,0,0-1.21-1.31,7,7,0,0,0-1.6-.9,6.24,6.24,0,0,0-2.4-.41,8.55,8.55,0,0,0-2.66.44A7.68,7.68,0,0,0,191.58,57,4.9,4.9,0,0,0,190,59a9.74,9.74,0,0,0-.58,2,7.09,7.09,0,0,0-.05,2.06A5.28,5.28,0,0,0,190,65a5,5,0,0,0,1.4,1.58l.82.33.55.24.27.12.51.21.56.22,1.27.51.77.3q.92.35,1.8.65t1.9.53q1,.24,2.38.46a.42.42,0,0,0,.35-.12,1.79,1.79,0,0,0,.31-.35,2.15,2.15,0,0,0,.22-.41l.11-.27A29,29,0,0,0,200,67.88ZM192.6,57.8a3.69,3.69,0,0,1,1.05-.39,5.68,5.68,0,0,1,1.3-.12,10.76,10.76,0,0,1,1.39.11,11,11,0,0,1,1.31.27,10,10,0,0,1,1.08.36l.3.12.41.18.62.3,0,0,.25.42-.06.14a1.57,1.57,0,0,1-.79.87,3.06,3.06,0,0,1-1.24.28,6,6,0,0,1-1.54-.17q-.84-.19-1.68-.47t-1.63-.6L192,58.53A1.45,1.45,0,0,1,192.6,57.8Z" style="fill:#f97316
"/><path d="M158.48,44.18v0l.07-.21a2.59,2.59,0,0,0,.08-.4,1.48,1.48,0,0,0,0-.4.38.38,0,0,0-.18-.28A30,30,0,0,0,154.85,41q-1.93-.84-3.73-1.49a1.14,1.14,0,0,1-.23-.58,5.75,5.75,0,0,1,0-.61l.81-1.81a21.37,21.37,0,0,1,1-1.91,11.78,11.78,0,0,1,1.21-1.74,6.32,6.32,0,0,1,1.48-1.31,4,4,0,0,1,1.8-.6,4.81,4.81,0,0,1,2.23.41,8.56,8.56,0,0,1,.86.42,5.5,5.5,0,0,1,1,.68,3.21,3.21,0,0,1,.71.85,1.09,1.09,0,0,1,0,1l-.14.36-.11.17-.26.45-.16.27-.32.51-.07.11-.17.24.2.46a.1.1,0,0,0,.05.06l.1,0a.76.76,0,0,0,.65,0,2.07,2.07,0,0,0,.59-.44,4.26,4.26,0,0,0,.48-.6,3.42,3.42,0,0,0,.31-.57,3.57,3.57,0,0,0,.28-1.84,3.71,3.71,0,0,0-.58-1.56,4.87,4.87,0,0,0-1.19-1.24,7.55,7.55,0,0,0-1.67-.92,7.44,7.44,0,0,0-2.71-.6,5.49,5.49,0,0,0-2.25.43,5.93,5.93,0,0,0-1.83,1.25,11.81,11.81,0,0,0-1.5,1.85,17.3,17.3,0,0,0-1.25,2.23q-.56,1.19-1,2.39l-.06.16-.92,2.36q-.41,1.09-.84,2.35-.54,1.58-1,3.27t-.75,3.12a10.28,10.28,0,0,0-.2,2.43q.06,1,.66,1.25a1.69,1.69,0,0,0,.39.1,1.41,1.41,0,0,0,.47,0,1,1,0,0,0,.43-.19.67.67,0,0,0,.23-.38l2.08-9.86.13-.32a1,1,0,0,1,.63-.16,4.46,4.46,0,0,1,.8.1,4,4,0,0,1,.66.19l.43.18.92.34.83.32.41.16.85.33,1.56.58,1,.35Z" style="fill:#f97316
"/><path d="M135.73,58.12Q76.53,69.16,30.89,35,13,21.21,5.5,4.22l6.78,5.32A1,1,0,1,0,13.51,8L3.83.37A1,1,0,0,0,2.22,1L.62,13.28a1,1,0,1,0,2,.26L3.7,5.1q7.78,17.42,26,31.47Q76.05,71.27,136.1,60.09a1,1,0,0,0-.37-2Z" style="fill:#f97316
"/></svg>